<?xml version="1.0" encoding="UTF-8"?>
<svg id="Capa_2" data-name="Capa 2" xmlns="http://www.w3.org/2000/svg" viewBox="0 0 474.11 913.79">
  <defs>
    <style>
      .cls-1 {
        fill: #000003;
        fill-rule: evenodd;
      }
    </style>
  </defs>
  <g id="Capa_7" data-name="Capa 7">
    <path class="cls-1" d="M376.48,2.18s12.48,59.09,13.4,108.36c.05,2.42.04,5.01-.02,7.76-2.08,1.15-5.22,3.21-9.26,6.73-7.72,6.73-27.27,24.1-35.68,38.44-8.41,14.35-9.51,27.13-3.12,29.87,6.39,2.75,15.19-5.87,23.95-19.48,6.91-10.73,18.95-35.7,23.75-45.81-.53,10.15-1.58,21.88-3.06,34.76-8.1,8.71-37.44,40.68-52.74,63.5-17.87,26.64-42.04,63.08-34.9,83.49,7.14,20.4,43.75,20.34,55.93-14.39,6.22-17.74,14.71-40.46,21.63-64.61-5.5,31.26-12.39,64.52-20.13,96.27-.1.1-39.65,40.25-85.63,75.41-46.04,35.21-81.79,79.4-57.43,90.46,24.36,11.06,57.84-13.01,82.58-49.79,18.53-27.55,41.37-57.86,53.06-87.14-1.38,5.13-2.79,10.19-4.2,15.15-5.01,17.53-9.91,34.33-14.9,50.57-.24.41-34.12,57.25-82.48,91.29-48.53,34.16-72.17,60.59-78.25,77.95-6.09,17.36,8.78,22.41,28.27,19.57,19.48-2.83,52.52-32.21,74.32-60.13,16.03-20.53,32.42-53.74,45.5-89.53-15.76,46.09-33.79,88.36-59.38,131.26-.12.05-73.9,29.92-98.83,63.67-24.95,33.77-40.85,49.38-33.56,58.57,7.28,9.19,50.2-12.9,71.18-33.11-5.26,6.93-10.51,13.7-15.68,20.26-18.63,7.26-65.13,26.63-89.44,47.84-30.86,26.91-49.12,43.28-38.39,49.82,6.6,4.02,31.12,2.01,64.62-22.9-2.88,3.14-5.54,5.98-7.92,8.5-8.14,8.56-14.38,15.34-19.06,20.61-.27.2-66.08,47.82-80.62,65.12-14.56,17.33-16.66,48.95,18.01,42.37,29.67-5.64,54.42-80.38,60.94-101.79,10.71-11.52,28.22-30.98,41.68-45.3,17.81-15.46,37.58-37.19,58.2-67.28-15.04,25.46-37.74,64.03-49.72,85.16-18.93,33.36-44.1,81.69-10.63,84.26,29.33,2.26,65-148.75,73.38-186.19,31.43-40.95,65.93-89.75,79.18-119.55,8.84-19.89,19.52-45.53,30.31-73.57-6.71,26.8-18.7,77.64-19.97,103.73-1.77,36.44,5.82,58.93,30.96,54.8,25.14-4.13,3.15-60.75,0-107.15-2.37-34.88-4.84-56.24-5.93-64.69,13.06-34.76,25.91-72.26,35.51-106.54-16.69,68.97-15.7,174.45,1.25,224.23,18.14,53.25,72.77,46.52,69.79,2.53-2.98-43.99-31.16-93.53-51.47-143.01-20.31-49.47-15.82-97.64-15.82-97.64h0c1.64-6.29,3.15-12.45,4.5-18.42,2.77-12.23,5.65-25.83,8.5-40.13,1.17,13.1,5.78,63.16,11.37,99.32,6.48,41.94,30.77,78.72,56.81,83.32,26.04,4.59,32.47-25.51,16.08-57.39-16.39-31.88-50.72-69.51-66-98.44-10.09-19.1-14.8-30.91-16.93-33.54,8.06-41.09,15.8-86.99,20.49-122.7.46,7.26,1.6,16.11,3.35,26.26,3.87,22.37,7.13,56.12,16.68,98.76,9.55,42.63,28.6,46.79,45.73,45.03,17.13-1.77,23.68-34.6,12.03-68.01-11.65-33.41-48.55-68.74-63.14-87.42-9.25-11.85-12.12-22.12-12.99-28.05,1.71-14.61,2.75-26.82,2.87-35.28,2.49,9.3,7.2,25.64,10.26,37.69,3.71,14.58,2.01,27.41,11.82,31.43,9.81,4.02,22.34-.91,26.42-12.08,4.08-11.17-5.64-29.58-15.87-44.17-10.22-14.59-33.28-27.86-33.28-27.86h0c-2.6-35.72-11.44-98.97-13.97-101.95-2.8-3.29-3.9.92-3.9.92h0ZM188.79,698.52h0s0,0,0,0h0ZM266.49,589.32s14.18,184.76-31.48,198.76c-45.66,13.99-33.14-33.47-18.45-75.63,14.7-42.16,49.93-123.13,49.93-123.13Z"/>
  </g>
</svg>